# xmcd
#
# Track frame offsets: 
#        150
#        19829
#        43559
#        61100
#        82830
#        107290
#        127598
#        148059
#        174324
#        189866
#        208250
#        228270
#        249390
#
# Disc length: 3445 seconds
#
# Revision: 0
# Processed by: cddbd v1.5.2PL0 Copyright (c) Steve Scherf et al.
# Submitted via: ExactAudioCopy v1.0b3
#
DISCID=970d730d
DTITLE=Thanh Thuy - Tinh Ca Que Huong
DYEAR=1994
DGENRE=
TTITLE0=Con nho Sai Gon khong
TTITLE1=Moi anh ve, Tro ve thon cu
TTITLE2=Chieu lang em
TTITLE3=Nhat nang
TTITLE4=Chieu tan, Duyen que
TTITLE5=Trang phuong Nam
TTITLE6=Thuong ve xu lanh, Ai len xua hoa dao
TTITLE7=Nha Trang ngay ve
TTITLE8=Tam tinh gui Hue, La thu mien Trung
TTITLE9=Tinh co do
TTITLE10=Nhung neo duong Viet Nam
TTITLE11=Que huong ngan doi yeu dau
TTITLE12=Loi tam su
EXTD=
EXTT0=
EXTT1=
EXTT2=
EXTT3=
EXTT4=
EXTT5=
EXTT6=
EXTT7=
EXTT8=
EXTT9=
EXTT10=
EXTT11=
EXTT12=
PLAYORDER=
